<svg xmlns="http://www.w3.org/2000/svg" fill="none" viewBox="0 0 24 24">
  <path fill="#121212" d="M15.9608 14.1401c-.1838-.0006-.3668-.0018-.5511-.0029-.4639-1.096-1.0531-2.0929-1.1531-2.6337-.1011-.5431-.0073-1.0754.1528-1.56982.2915.15182.5448.35292.7566.61932 1.293 1.6259.8391 3.4174.7948 3.5871Zm-4.1273-.011c-.201 0-.4005.0007-.5987.0007.2656-.2372.5341-.3874.784-.4096.2494.0222.5236.1724.7971.4096-.3246-.0007-.651-.0007-.9824-.0007Zm-2.05297-2.6256c-.1034.558-.69195 1.5314-1.1453 2.6337-.23079.0011-.46116.0023-.69087.0034-.03815-.3741-.13305-2.1077 1.22725-3.634.14438-.1622.30278-.2985.47357-.4153.14492.4571.22351.9384.13535 1.4122ZM23.867 14.0936c-.4028-.0063-.8054-.0119-1.2076-.0177-.0079-.8147-.0663-1.1957-.0899-1.3189l-.0184-.0985c-.0321-.0991-.1607-.1742-.3158-.1765-.082-.0064-.164-.012-.246-.0183-.0764-.0006-.1319.0172-.1713.0463-.0174-.2256-.0355-.4009-.0495-.5207l-.0291-.2498c-.0243-.1564-.1646-.2716-.3191-.279-.1545-.0074-.3927-.0201-.3927-.0201-.1398-.0016-.26.0866-.3077.2115-.0454-.1261-.1629-.2171-.3033-.2184-.1309-.0016-.2618-.0027-.3926-.0045-.1809-.0018-.3286.1449-.3309.3282 0 0-.0909.8961-.1173 2.4131-.7595-.0085-1.5054-.0154-2.2479-.0211.1264-.8829.3752-3.6536-1.1082-5.52466-.6066-.76546-1.4166-1.27985-2.4158-1.53945l-.0281.05555c-.0647.11812-.1376.23155-.2185.33812-.3921.51562-.9178.8129-1.48.83696l-.0276.00124h-.0128l-.0871-.00179c-.56-.02695-1.0829-.32546-1.4727-.8404-.0759-.09969-.1439-.2057-.2051-.3157-.82902.26358-1.53391.7172-2.10575 1.3607-1.68222 1.89353-1.62722 4.81073-1.57438 5.63013-.72012.0056-1.44294.0125-2.17938.0204-.02642-1.5164-.11741-2.4131-.11741-2.4131-.00216-.1833-.1499-.33-.33081-.3282-.1309.0018-.26166.0029-.39255.0045-.14047.0018-.25788.0928-.30331.2184-.04826-.1249-.16797-.2126-.30789-.2115 0 0-.23807.0127-.39255.0201-.15449.008-.29495.1226-.31908.279l-.02912.2498c-.01402.1203-.03209.2956-.04947.5214-.03937-.0298-.09437-.0476-.17134-.047-.08196.0063-.16406.0119-.24602.0183-.15502.0018-.28363.0779-.31625.1765l-.01793.0985c-.02413.1232-.08196.5042-.08991 1.3189-.402123.0058-.804782.0114-1.207577.0177l-.0860052.0596c-.0049877.0115-.03976763.1128-.03477987.428.00444853.3157.04381137.4194.05055157.4326l.0853315.051c.402255-.0063.803836-.0121 1.206499-.0179.02642.7305.08438 1.1116.11579 1.2697.01227.0641.0236.1259.02926.1415.03424.0991.165.1713.31948.169.0821.0039.16352.0079.24548.0121.0759-.0013.13036-.0207.16905-.0516.01011.0997.02022.1896.02979.2687.01806.1507.06457.4881.06915.5082.03141.1518.15718.2537.32178.2629.16513.0086.39039.0097.39039.0097.13872-.0018.25559-.0928.30048-.2182.04772.1243.16689.2125.3056.2108.12968-.0012.26004-.0029.38972-.004.17983-.0023.32353-.1512.32191-.3352 0 0 .07253-.8988.06902-2.416.83579-.0085 1.6554-.016 2.47258-.0223.12982.0939.29212.142.46224.1225.12132-.013.23146-.0595.32353-.1277.23146-.0017.464-.0029.69653-.004-.04327.1341-.08317.2692-.11849.4051-.25222.9779-.26907 1.796-.34213 2.7304-.04718.6022.08425 1.8065.62185 1.8065.53746 0 .69869-.3793.76218-.7403.10448-.5923.06687-1.2677.36964-2.263.20773-.6817.5543-1.3853.9525-1.9467.3989-.0005.8026-.0012 1.2133-.0012.5493 0 1.0869.0007 1.6171.0018.4123.5608.7728 1.265.9807 1.9461.3027.9953.2151 1.5865.3033 2.31.0443.3644.1994.6933.6942.6933.4949 0 .6779-.9458.7072-1.6368.0472-1.1282-.0415-1.7983-.2943-2.7769-.045-.1753-.0995-.3519-.1596-.5278.1798.0006.3601.0018.5392.0029.077.0574.1657.0992.2652.1198l.1337.0132c.1432 0 .2785-.0465.3909-.1277.8454.0061 1.6929.0137 2.5573.0228-.0034 1.5172.0691 2.416.0691 2.416-.0016.1827.1427.3334.3218.3352.1298.0011.2602.0022.3899.004.1387.0017.2578-.0865.3056-.2115.0449.1261.1617.2171.3004.2189 0 0 .2253-.0011.3904-.0103.1646-.0086.2904-.1105.3218-.2623.0039-.0207.0511-.3575.0692-.5082.0095-.0791.0197-.169.0298-.2687.0387.0309.0931.0503.169.051.0814-.0036.1634-.0076.2455-.0115.1545.0023.2852-.0699.3195-.169.0051-.0156.0168-.0774.0292-.1415.0309-.1587.0887-.5397.1158-1.2702.4021.0057.8043.0115 1.2064.0177l.0854-.0503c.0068-.0132.0573-.0992.0623-.4326.0057-.3334-.0415-.4165-.0466-.4286l-.0859-.059Z"/>
  <path fill="#121212" d="m11.97 7.93993.069.0011.0203-.0011c.8925-.03781 1.6059-1.01173 1.6059-2.07625 0-1.07195-.7241-1.83673-1.6262-1.86258V4l-.0202.00055L11.9981 4v.0011c-.9015.02585-1.6255.79063-1.6255 1.86258 0 1.06109.7088 2.03335 1.5974 2.07625Z"/>
</svg>
