<svg xmlns="http://www.w3.org/2000/svg" fill="none" viewBox="0 0 24 24">
  <g fill="#000" clip-path="url(#a)">
    <path d="M23.5433 10.4227h-1.2012v2.2822h1.2012c.2524 0 .4567-.2045.4567-.4561v-1.3694c0-.2524-.2043-.4567-.4567-.4567ZM0 10.8794v1.3694c0 .2239.161456.4106.375061.4493l.081613.0068H1.65787v-2.2822H.456674C.204472 10.4227 0 10.627 0 10.8794Zm16.7109-.4567H7.28896v2.2822h9.42194v-2.2822ZM3.81853 8.08409h-1.2694c-.25221 0-.45668.20432-.45668.45608V14.588c0 .1669.08972.3131.22348.3922.0682.0405.1479.0639.2332.0639h1.2694c.12404 0 .23629-.0498.31864-.1302V8.21608l-.0847-.06762c-.06821-.0411-.14805-.06437-.23394-.06437Zm2.97885-.84839-.00059-.00059C6.71945 7.09517 6.56963 7 6.39771 7H5.02843c-.25235 0-.45609.20447-.45609.45609v8.21581c0 .2517.20374.4561.45609.4561h1.36928c.25176 0 .45668-.2044.45668-.4561V7.45609c0-.0797-.02077-.15469-.05701-.21965V7.2357Zm14.91812.93251-.0006-.00074c-.075-.05274-.1659-.08338-.264-.08338h-1.2694c-.1247 0-.2369.04964-.3193.13008v6.69973c.0824.0804.1946.1302.3193.1302h1.2694c.1975 0 .3652-.1252.429-.3002l.0276-.1559V8.54017c0-.12286-.0484-.23393-.1271-.31554l-.0649-.05642Zm-2.351-.94415C19.2848 7.0903 19.1386 7 18.9711 7h-1.3688c-.2524 0-.4567.20447-.4567.45609v8.21581c0 .2517.2043.4561.4567.4561h1.3688c.2522 0 .4566-.2044.4566-.4561V7.45609c0-.08471-.0233-.16382-.0632-.23203Z"/>
  </g>
  <defs>
    <clipPath id="a">
      <path fill="#fff" d="M0 0h24v24H0z" transform="rotate(180 12 12)"/>
    </clipPath>
  </defs>
</svg>
