<svg xmlns="http://www.w3.org/2000/svg" fill="none" viewBox="0 0 24 24">
  <path fill="#121212" d="m16.4902 4.05285.0326.05988-.034-.0626.0014.00272Zm3.1216 7.39615c-.2922-1.1736-.7246-2.43035-1.1032-3.22408-.4956-1.03914-.5288-1.97003-.6359-2.22535-1.0152-2.41584-2.0172-4.26325-3.1116-3.96865-.891.24094-3.1902 1.45637-3.3306 2.90076-.0365.37923.0605.93808.7326 1.44775.8967.67989 1.4117 1.11435 1.7518 1.40113.2773.23408.4469.37714.6093.46368.1071.58951.0359 2.90206-.1631 5.10406l-.0638.4818c-.161.0027-.6812-.312-.9753-.4757-1.2475-.6959-3.3205-1.8522-5.62047-.0292-.4391-.0193-1.33326-.0912-1.95327 0-.38401.0559-1.25885.3452-1.9587 1.0471-.25755.2568-.58408.7904-.67333 1.2395-.07521.3753-.1303.8642-.11305 1.3478l.00064.0313c.01006.2309.03592.4597.0859.674.20215.8742.57338 2.0623 1.69716 3.0477.86414.7578 1.92804 1.0458 3.16215.8569.308-.0466 2.57537.4019 2.87937.4244 1.0778.0805 3.435-.6559 4.4668-1.2679.4977-.2954 1.2669-.3221 1.9135-.4439 1.1755-.2208 2.5082-.4723 3.1456-1.8329.0943-.2015.1557-.453.1862-.7696.1437-1.4818-.4257-4.2061-.9287-6.2306Z"/>
</svg>
