<svg xmlns="http://www.w3.org/2000/svg" fill="none" viewBox="0 0 24 24">
  <g fill="#000" clip-path="url(#a)">
    <path d="M21.103 11.7352c1.0543.5301 1.779 1.6206 1.779 2.8826 0 1.7842-1.4443 3.2279-3.2253 3.2279-1.7816 0-3.225-1.4437-3.225-3.2279 0-.4725.1011-.9243.2881-1.3294-.2544.4828-.3865 1.0231-.3865 1.5707 0 1.5895 1.1241 2.9892 2.6716 3.324.2336.0548.4751.0808.7321.0808 1.2443 0 2.3918-.6781 2.9917-1.7687.2725-.4958.4155-1.062.4155-1.6361 0-1.3811-.8155-2.5938-2.0412-3.1239ZM6.22029 17.3888c-1.47696.9999-3.48234.6135-4.48061-.8615-.998403-1.4755-.61235-3.4803.86511-4.4801.39115-.2647.82209-.4347 1.26248-.5067-.54234.0601-1.06404.2533-1.51786.5605-1.31595.8906-1.844864 2.6064-1.25478 4.0756.08604.2243.19943.4387.34403.6517.69677 1.0299 1.90181 1.6003 3.14154 1.4858.56311-.0523 1.11167-.2513 1.58725-.5731 1.14387-.7744 1.69094-2.129 1.44277-3.4414.1523 1.1704-.34503 2.3816-1.38993 3.0892Z"/>
    <path d="M12.2287 13.4677c-.2874-.2006-.6356-.3187-1.0117-.3187-.1809 0-.3555.0275-.5202.0782L8.793 9.45992l7.7599-.8247.229.5186-4.5532 4.31388Zm-1.0117 1.9205c-.256 0-.4638-.2078-.4638-.4638 0-.2554.2078-.4637.4638-.4637.2564 0 .4641.2083.4641.4637 0 .256-.2077.4638-.4641.4638Zm-1.74439-.7855-4.71274.0005 3.40985-4.88628 1.99298 3.78078c-.35439.2627-.60716.6543-.69009 1.105Zm-5.21058-.1663-1.92866-4.3056h4.78784l-2.85918 4.3056ZM16.1686 6.04386c.5206-.28286 1.5516-.73046 2.0291-.44599.2166.12894.314.42895.2881.8911-.0072.13975.1.25998.2403.26782.1301.00671.2601-.09997.268-.24046.0367-.66618-.1441-1.12212-.5358-1.35574-.9096-.53986-2.5617.44499-2.7471.5595-.1083.06689-.1508.20254-.1001.31867l.8206 1.87943-8.1241.83303-.77199-1.44687h-.57653l.90863 1.70288-.40819.61433H2.05984l-.05397.01094-.04761.01082-.00262.00049-.02847.02027-.04973.03581-.02698.03979-.02636.04202-.01144.05695-.00721.03779.00883.04414.01293.05744.00049.00212 2.22346 4.97906.00672.0108.00311.0079.01454.0201.02338.0321.02275.0197.03059.0244.03208.0149.03108.0131.05806.0082.01082.0021 5.16768-.0011c.09375.8916.84953 1.5885 1.76503 1.5885.2413 0 .4714-.0488.6812-.1363l.4704.8761.4958-.1482-.529-.9901c.4005-.3253.657-.8216.657-1.377 0-.3642-.1109-.7025-.3-.9842l4.5034-4.04822 2.31 5.06772c.0416.0957.1353.1528.2332.1528l.1015-.0213c.1291-.0564.1875-.2061.1316-.3352l-3.8035-8.71214Z"/>
    <path d="M4.26203 18.5597c-2.03497 0-3.690592-1.6553-3.690592-3.6901 0-2.035 1.655622-3.6908 3.690592-3.6908 2.03497 0 3.6901 1.6558 3.6901 3.6908 0 2.0348-1.65513 3.6901-3.6901 3.6901Zm0-7.9517C1.90802 10.608 0 12.5159 0 14.8696c0 2.3535 1.90802 4.2615 4.26203 4.2615 2.35352 0 4.26154-1.908 4.26154-4.2615 0-2.3537-1.90802-4.2616-4.26154-4.2616Zm15.47647 7.9517c-2.0349 0-3.6906-1.6553-3.6906-3.6901 0-2.035 1.6557-3.6908 3.6906-3.6908s3.6901 1.6558 3.6901 3.6908c0 2.0348-1.6552 3.6901-3.6901 3.6901Zm0-7.9517c-2.354 0-4.2621 1.9079-4.2621 4.2616 0 2.3535 1.9081 4.2615 4.2621 4.2615 2.3535 0 4.2615-1.908 4.2615-4.2615 0-2.3537-1.908-4.2616-4.2615-4.2616ZM8.98261 6.5024H6.32075c-.10307 0-.19831.05595-.24867.14559-.05073.08952-.04861.19944.00473.28746l.21186.32737c.17307.26794.49734.41864.80506.33633l.00572-.00162 1.9779-.54085c.13105-.04613.20988-.18028.18601-.31705-.02325-.13677-.14199-.23723-.28075-.23723Zm7.06479-.9708c-.2685 0-.486.21759-.486.4854 0 .26831.2175.4854.486.4854.2678 0 .4854-.21709.4854-.4854 0-.26781-.2176-.4854-.4854-.4854Zm1.0444 2.29856c-.0389-.09064-.1446-.13316-.2358-.09375l-.4559.19633c-.0906.03891-.1332.1446-.0937.23573l1.004 2.33223c.0394.0907.1444.1327.2357.0938l.4553-.1964c.0913-.0387.1332-.1444.0944-.2357l-1.004-2.33224Zm-3.998 9.31674-.9531.1709c-.157.0286-.2456.1643-.1726.2648l.1224.1663c.0491.0679.1528.1004.2584.0813l.7274-.1306c.1062-.0191.1916-.0854.2145-.1662l.0564-.1984c.0342-.1198-.0963-.2166-.2534-.1881Z"/>
  </g>
  <defs>
    <clipPath id="a">
      <path fill="#fff" d="M0 0h24v24H0z" transform="rotate(180 12 12)"/>
    </clipPath>
  </defs>
</svg>
