<svg xmlns="http://www.w3.org/2000/svg" fill="none" viewBox="0 0 24 24">
  <path fill="#121212" d="M2 5.61111c0-.95773.38046-1.87623 1.05767-2.55344C3.73488 2.38046 4.65338 2 5.61111 2H18.3889c.9577 0 1.8762.38046 2.5534 1.05767C21.6195 3.73488 22 4.65338 22 5.61111V18.3889c0 .9577-.3805 1.8762-1.0577 2.5534C20.2651 21.6195 19.3466 22 18.3889 22H5.61111c-.95773 0-1.87623-.3805-2.55344-1.0577C2.38046 20.2651 2 19.3466 2 18.3889V5.61111Zm3.61111-1.94444c-.5157 0-1.01027.20486-1.37493.56951-.36465.36466-.56951.85923-.56951 1.37493v.27778H20.3333v-.27778c0-.5157-.2048-1.01027-.5695-1.37493-.3646-.36465-.8592-.56951-1.3749-.56951H5.61111ZM3.66667 18.3889c0 1.0733.87111 1.9444 1.94444 1.9444H18.3889c.5157 0 1.0103-.2048 1.3749-.5695.3647-.3646.5695-.8592.5695-1.3749V7.55556H3.66667V18.3889Zm2.61111-9.16668h3.66666c.52226 0 .94446.42223.94446.94448v7.5555c0 .5222-.4222.9445-.94446.9445H6.27778c-.25048 0-.49071-.0995-.66783-.2767-.17711-.1771-.27662-.4173-.27662-.6678v-7.5555c0-.52225.42223-.94448.94445-.94448ZM7 17h2.22222v-6.1111H7V17Zm5-6.9444c0-.22106.0878-.43302.2441-.5893.1563-.15628.3682-.24408.5892-.24408h5c.221 0 .433.0878.5893.24408.1563.15628.2441.36824.2441.5893 0 .221-.0878.4329-.2441.5892-.1563.1563-.3683.2441-.5893.2441h-5c-.221 0-.4329-.0878-.5892-.2441-.1563-.1563-.2441-.3682-.2441-.5892Zm.8333 2.5c-.221 0-.4329.0878-.5892.244-.1563.1563-.2441.3683-.2441.5893 0 .221.0878.433.2441.5892.1563.1563.3682.2441.5892.2441h3.8889c.221 0 .433-.0878.5893-.2441.1563-.1562.2441-.3682.2441-.5892 0-.221-.0878-.433-.2441-.5893-.1563-.1562-.3683-.244-.5893-.244h-3.8889Z"/>
</svg>
