<svg xmlns="http://www.w3.org/2000/svg" fill="none" viewBox="0 0 24 24">
  <path fill="#121212" d="M18.6233 7.57004H5.37648v.90679H18.6233v-.90679Zm5.0846 0h-.7694v.90666h.7694c.1614 0 .2921-.13511.2921-.302v-.30213c0-.16742-.1307-.30253-.2921-.30253ZM19.7073 5h-.5253c-.162 0-.2921.13511-.2921.302v5.4428c0 .1668.1301.3026.2921.3026h.5253c.1608 0 .2925-.1358.2925-.3026V5.302c0-.05621-.0156-.10841-.0414-.15354C19.9085 5.05954 19.8144 5 19.7073 5Zm1.3416 0h-.5254c-.1618 0-.2919.13511-.2919.302v5.4428c0 .1668.1301.3026.2919.3026h.5254c.1613 0 .2921-.1358.2921-.3026V5.302c0-.05621-.0146-.10841-.0404-.15354C21.2501 5.05954 21.1559 5 21.0489 5Zm1.3417 0h-.5254c-.1614 0-.292.13511-.292.302v5.4428c0 .1668.1306.3026.292.3026h.5254c.1613 0 .292-.1358.292-.3026V5.302c0-.05621-.0146-.10841-.0404-.15354C22.5916 5.05954 22.4975 5 22.3906 5ZM.29206 8.4767h.76945v-.90666H.29206C.130737 7.57004 0 7.70515 0 7.87257v.30213c0 .16689.130737.302.29206.302ZM4.29272 5c-.10699 0-.20107.05954-.25166.14846-.02582.04513-.0404.09733-.0404.15354v5.4428c0 .1668.13074.3026.29206.3026h.5254c.16132 0 .29193-.1358.29193-.3026V5.302c0-.16689-.13061-.302-.29193-.302h-.5254ZM2.95116 5c-.10699 0-.20056.05954-.25166.14846-.02582.04513-.04027.09733-.04027.15354v5.4428c0 .1668.13061.3026.29193.3026h.5254c.16132 0 .29193-.1358.29193-.3026V5.302c0-.16689-.13061-.302-.29193-.302h-.5254Zm-1.34164 6.0474h.5254c.16132 0 .29206-.1358.29206-.3026V5.302c0-.16689-.13074-.302-.29206-.302h-.5254c-.10699 0-.20056.05954-.25166.14846-.02582.04513-.04027.09733-.04027.15354v5.4428c0 .1668.13061.3026.29193.3026Zm11.24998 8.1875c0 .0773-.0608.1401-.1355.1401h-1.4482c-.0747 0-.1355-.0628-.1355-.1401v-4.016c0-.0778.0608-.1407.1355-.1407h1.4482c.0747 0 .1355.0629.1355.1407v4.016Z"/>
  <path fill="#121212" d="M15.6418 14.9292c0 .5423-.4253.9823-.9502.9823H9.30822c-.52475 0-.95013-.44-.95013-.9823v-.1409c0-.5428.42538-.9829.95013-.9829h5.38338c.5249 0 .9502.4401.9502.9829v.1409Z"/>
  <path fill="#121212" d="M17.2466 20.1238H6.75361c-.29955 0-.54269-.2514-.54269-.5613V6.76233c0-.31041.24314-.56194.54269-.56194.30006 0 .54308.25153.54308.56194 0 0-.00542 11.58297 0 11.81997.00542.2364.12415.4183.36136.4183h8.76255c.2205 0 .2828-.1719.2828-.4006V6.76233c0-.31041.2431-.56194.5432-.56194.2995 0 .5426.25153.5426.56194V19.5625c0 .3099-.2431.5613-.5426.5613Z"/>
  <path fill="#121212" d="M7.96936 10.5889h-.76893v.9068h.76893c.16197 0 .29258-.1352.29258-.3026v-.302c0-.1669-.13061-.3022-.29258-.3022Zm8.06124.9068h.769v-.9068h-.769c-.1618 0-.2925.1353-.2925.3022v.302c0 .1674.1307.3026.2925.3026Z"/>
</svg>
