<svg xmlns="http://www.w3.org/2000/svg" fill="none" viewBox="0 0 24 24">
  <path fill="#121212" d="M18.4867 2c.8974-.00006 1.7608.34323 2.4131.95944.6523.61621 1.044 1.45863 1.0948 2.35444L22 5.51275V18.4872c0 .9317-.3702 1.8252-1.029 2.4839C20.3121 21.6299 19.4185 22 18.4867 22H5.5144c-.89758.0003-1.76125-.3428-2.41378-.9591-.65252-.6162-1.0444-1.4588-1.09521-2.3548L2 18.4872V5.51275c0-.93164.37015-1.82512 1.02903-2.48389C3.6879 2.37009 4.58153 2 5.51332 2H18.4867Zm-7.298 7.56593-7.56717.00108v8.92019l.00757.173c.04314.4698.26032.9065.60892 1.2245.3486.3179.80345.4941 1.2753.494l5.67538-.0011V9.56593Zm9.1887 6.48507-7.5672.0011v4.3255h5.6754c.5017 0 .9829-.1992 1.3377-.554.3548-.3547.5541-.8358.5541-1.3374V16.051ZM18.4867 3.62127l-5.6765-.00108V14.4319l7.5672-.0011.0011-8.91697-.0076-.17293c-.0431-.4698-.2603-.90652-.6089-1.22447-.3486-.31795-.8035-.49417-1.2753-.49408v-.00108Zm-7.298-.00108-5.67538.00108-.15458.00649c-.47317.03906-.91434.25457-1.23596.60377-.32161.34919-.50015.80653-.50017 1.28122l-.00108 2.43407h7.56717V3.61911v.00108Z"/>
</svg>
