<svg xmlns="http://www.w3.org/2000/svg" fill="none" viewBox="0 0 24 24">
  <path fill="#000" d="M21.5589 6.65609C20.6682 4.89374 18.5798 4 15.3521 4c-3.2425 0-5.35226.90031-6.27042 2.67565-.37184.71868-.49492 1.49162-.46579 2.25556 1.18689.21176 2.15261.65442 2.81241 1.28389l.0701-.0446c-.2843-.83775-.4075-1.70094-.0992-2.29653.4218-.81577 1.8253-1.265 3.9529-1.265 2.1002 0 3.477.43438 3.8774 1.22274.5088 1.00126-.2778 2.81719-.9584 3.94709-.8567-.5291-1.8754-.8361-2.9672-.8361-1.0733 0-2.0741.2963-2.9207.8074-.0737.0447-.1148.1256-.116.2113-.0035.27-.0398.5575-.0625.8912-.0363.5527-.1772 1.1478-.4177 1.7678-.3432.8846-.8085 1.607-1.0239 1.9175-.0416.0607-.0517.1351-.0309.2058.1.3416.1511.6938.1511 1.0514 0 .4129-.072.8169-.2029 1.2006-.025.0732-.0166.1548.0274.2183.2565.3737.5599.7153.9037 1.0144.1601.1387.491.3808 1.0443.3904.5539.0083 4.746 0 5.2952 0 .5492 0 .8359-.2147.9757-.332 1.1602-.9764 1.8926-2.4138 1.8926-4.0173 0-.9317-.2475-1.8075-.683-2.5696.6438-.9353 2.7756-4.3683 1.4226-7.04381Z"/>
  <path fill="#000" d="M8.90204 14.9969c-.58188-.4099-1.29827-.6527-2.07278-.6527-.79978 0-1.53688.2576-2.12776.6908-.48064-.7883-1.09051-2.1907-.69011-2.9653.30457-.5885 1.31783-.9128 2.85228-.9128 1.51547 0 2.50902.3136 2.7976.8825.38423.7555-.25474 2.1549-.75923 2.9575Zm2.44006-3.806c-.6433-1.27142-2.14976-1.91642-4.47843-1.91642-2.33937 0-3.8614.64971-4.5241 1.93072-1.09594 2.1205.7925 4.8924 1.0114 5.2018.04826.0684.10467.1279.16607.1796-.13566.3619-.21005.7521-.21005 1.1591 0 1.0031.4498 1.9051 1.16433 2.5274.10238.0893.31357.2433.66699.2488.1178.0017.49378.0022.95543.0022.92401 0 2.19187-.0022 2.42576-.0022.35041 0 .53305-.1363.62229-.2114.74081-.6234 1.20901-1.5414 1.20901-2.5648 0-.4295-.0832-.8401-.2332-1.2179l.0929-.1071c.229-.3111 2.2072-3.1022 1.1316-5.2298Z"/>
</svg>
