<svg xmlns="http://www.w3.org/2000/svg" fill="none" viewBox="0 0 24 24">
  <path fill="#121212" d="M21.2857 10.8036H18.875V8.26786c0-.39509-.3192-.71429-.7143-.71429h-7.0312L8.51116 5.04911C8.47785 5.01792 8.43403 5.00039 8.38839 5h-5.6741C2.3192 5 2 5.3192 2 5.71429V18.9286c0 .3951.3192.7143.71429.7143H18.2946c.2902 0 .5536-.1764.663-.4465l2.9911-7.4107c.0334-.0848.0513-.1763.0513-.2678 0-.3951-.3192-.7143-.7143-.7143ZM3.60714 6.60714h4.20759l2.66967 2.55357h6.7835v1.64289H5.88393c-.29018 0-.55357.1763-.66295.4464l-1.61384 4V6.60714ZM17.7879 18.0357H4.12054l2.3058-5.7143H20.096l-2.3081 5.7143Z"/>
</svg>
