<svg xmlns="http://www.w3.org/2000/svg" fill="none" viewBox="0 0 24 24">
  <path stroke="#121212" stroke-linecap="round" stroke-linejoin="round" stroke-width="2" d="M10.8889 7.66667V6.55555c0-.88405.3512-1.7319.9763-2.35702.6251-.62512 1.473-.97631 2.357-.97631h4.4445c.884 0 1.7319.35119 2.357.97631.6251.62512.9763 1.47297.9763 2.35702V17.6667c0 .884-.3512 1.7319-.9763 2.357-.6251.6251-1.473.9763-2.357.9763h-4.4445c-.884 0-1.7319-.3512-2.357-.9763-.6251-.6251-.9763-1.473-.9763-2.357v-1.1111M6.44444 7.66667 2 12.1111l4.44444-4.44443ZM2 12.1111l4.44444 4.4445L2 12.1111Zm0 0h15.5556H2Z"/>
</svg>
