<svg xmlns="http://www.w3.org/2000/svg" fill="none" viewBox="0 0 24 24">
  <path fill="#121212" d="M12.8262 13.9995c.663 0 1.2988.2634 1.7677.7322.4688.4689.7322 1.1047.7322 1.7677l-.0017 1.2466c.1717 3.0616-2.1866 4.5882-6.55804 4.5882C4.40989 22.3325 2 20.8276 2 17.791v-1.2916c0-.663.26338-1.2988.7322-1.7677.46882-.4688 1.10468-.7322 1.76769-.7322h8.32631Zm6.6663 0c.663 0 1.2989.2634 1.7677.7322.4688.4689.7322 1.1047.7322 1.7677v.8783c.15 2.7449-1.9332 4.1215-5.7397 4.1215-.5167 0-1.0033-.025-1.4566-.075.4833-.4466.8449-.9783 1.0749-1.5966l.3817.005c2.9732 0 4.1615-.785 4.0731-2.4099v-.9233c0-.221-.0878-.4329-.244-.5892-.1563-.1563-.3683-.2441-.5893-.2441h-3.4381c-.1673-.6455-.5243-1.2261-1.025-1.6666h4.4631Zm-6.6663 1.6666H4.49989c-.22101 0-.43296.0878-.58923.2441-.15628.1563-.24407.3682-.24407.5892v1.2916c0 1.9083 1.5466 2.8749 5.09977 2.8749 3.53984 0 4.99974-.9449 4.89314-2.8749v-1.2916c0-.221-.0878-.4329-.2441-.5892-.1563-.1563-.3682-.2441-.5892-.2441ZM8.66636 4c1.10502 0 2.16474.43897 2.94614 1.22033.7814.78137 1.2203 1.84113 1.2203 2.94615s-.4389 2.16482-1.2203 2.94612c-.7814.7814-1.84112 1.2204-2.94614 1.2204-1.10501 0-2.16477-.439-2.94614-1.2204-.78137-.7813-1.22033-1.8411-1.22033-2.94612 0-1.10502.43896-2.16478 1.22033-2.94615C6.50159 4.43897 7.56135 4 8.66636 4Zm8.33294 1.66659c.884 0 1.7318.35117 2.3569.97627.6251.62509.9763 1.4729.9763 2.35691 0 .88402-.3512 1.73183-.9763 2.35693-.6251.6251-1.4729.9763-2.3569.9763-.884 0-1.7318-.3512-2.3569-.9763s-.9763-1.47291-.9763-2.35693c0-.88401.3512-1.73182.9763-2.35691.6251-.6251 1.4729-.97627 2.3569-.97627Zm-8.33294 0c-.66301 0-1.29886.26338-1.76768.7322-.46882.46882-.7322 1.10468-.7322 1.76769 0 .66301.26338 1.29886.7322 1.76768.46882.46884 1.10467.73224 1.76768.73224.66301 0 1.29887-.2634 1.76774-.73224.4688-.46882.7322-1.10467.7322-1.76768 0-.66301-.2634-1.29887-.7322-1.76769-.46887-.46882-1.10473-.7322-1.76774-.7322Zm8.33294 1.66659c-.442 0-.8659.17559-1.1784.48814-.3126.31254-.4882.73645-.4882 1.17845 0 .44201.1756.86591.4882 1.17843.3125.3126.7364.4882 1.1784.4882.442 0 .8659-.1756 1.1785-.4882.3125-.31252.4881-.73642.4881-1.17843 0-.442-.1756-.86591-.4881-1.17845-.3126-.31255-.7365-.48814-1.1785-.48814Z"/>
</svg>
