<svg xmlns="http://www.w3.org/2000/svg" fill="none" viewBox="0 0 24 24">
  <path fill="#121212" d="M15.5 12.25c0-.1989-.079-.3897-.2197-.5303-.1406-.1407-.3314-.2197-.5303-.2197h-5c-.19891 0-.38968.079-.53033.2197C9.07902 11.8603 9 12.0511 9 12.25v.5c0 1 1.383 1.75 3.25 1.75s3.25-.75 3.25-1.75v-.5ZM14 8.745C14 7.78 13.217 7 12.25 7s-1.75.779-1.75 1.745c0 .46413.1844.90925.5126 1.23744.3282.32816.7733.51256 1.2374.51256.4641 0 .9092-.1844 1.2374-.51256C13.8156 9.65425 14 9.20913 14 8.745ZM4 4.5c0-.66304.26339-1.29893.73223-1.76777C5.20107 2.26339 5.83696 2 6.5 2H18c.3283 0 .6534.06466.9567.1903s.5789.30979.8111.54193c.2321.23215.4163.50775.5419.81106.1256.30332.1903.62841.1903.95671v14.25c0 .1989-.079.3897-.2197.5303-.1406.1407-.3314.2197-.5303.2197H5.5c0 .2652.10536.5196.29289.7071.18754.1875.44189.2929.70711.2929h13.25c.1989 0 .3897.079.5303.2197.1407.1406.2197.3314.2197.5303 0 .1989-.079.3897-.2197.5303-.1406.1407-.3314.2197-.5303.2197H6.5c-.66304 0-1.29893-.2634-1.76777-.7322C4.26339 20.7989 4 20.163 4 19.5v-15Zm1.5 0V18H19V4.5c0-.26522-.1054-.51957-.2929-.70711C18.5196 3.60536 18.2652 3.5 18 3.5H6.5c-.26522 0-.51957.10536-.70711.29289C5.60536 3.98043 5.5 4.23478 5.5 4.5Z"/>
</svg>
