<svg xmlns="http://www.w3.org/2000/svg" fill="none" viewBox="0 0 24 24">
  <path fill="#000" d="M8.15814 12.3767c-.33367.0024-.5444.2184-.54095.5537.00289.3055.23429.538.53805.5409.31644.0035.55129-.2308.55308-.5518.00165-.3337-.21307-.545-.55018-.5428Z"/>
  <path fill="#000" d="M7.43289 13.0883c-.33422.0022-.83906.4812-.83561.8166 0 0 .5284.2744.83216.2779.31644.0034.55129-.2314.55294-.5519.00179-.3336-.21238-.5455-.54949-.5426Zm1.27085-1.6326c-.33367.0023-.5444.2182-.54095.5536.00276.3054.2343.5381.53805.541.31644.0034.55129-.2316.55295-.552.00179-.3335-.21308-.545-.55005-.5426Z"/>
  <path fill="#000" d="M9.18267 10.4772c-.33367.0023-.5444.2181-.54095.5536.00275.3054.23429.538.53805.5409.31644.0035.55129-.2315.55294-.5519.00179-.3336-.21307-.545-.55004-.5426Zm2.15623-.3629c0 .2963-.24.5362-.5363.5362s-.5364-.2399-.5364-.5362c0-.29635.2401-.53643.5364-.53643s.5363.24008.5363.53643Zm-4.69683 8.6396s7.44983.031 10.08163-.3934c.1694-.0275.1913-.2636.0288-.3181-2.3051-.7735-6.2727-1.3116-6.2353-1.3219 0 0-5.81262 1.7238-3.87513 2.0334Z"/>
  <path fill="#000" d="M19.8218 14.0812c-.3279.0051-.5948-.2492-.6023-.5731-.0058-.3084.2733-.591.5874-.5933.3119-.0017.5875.274.591.5915.0034.2952-.2711.5696-.5761.5749Zm-1.6608.6184c-.2762.0007-.5248-.2412-.5311-.5162-.0069-.2883.2366-.5432.5231-.5478.2871-.0052.541.2412.5433.5277.0022.2871-.2464.5363-.5353.5363Zm-7.5129 1.1462c2.3894-4.2017 6.0395-3.8716 7.1042-3.1365-2.4912.766-3.3319 1.0027-7.1042 3.1365Zm-1.29729.7867c-1.29028.6909-2.6656.9844-4.12996.9798-.88784-.0029-2.15401-.3124-2.46879-1.1658-.29053-.7891-.09937-1.4947 1.91062-1.9932.64307-.1596 2.22871-.124 3.23411-1.2892.04548-.0522.08449-.1149.12694-.1791.08614-.127.17627-.2717.27054-.436.22162-.3888.45302-.8039.66554-1.1903.03335-.0599.06547-.119.09703-.177.08324-.1509.52261-.9296.8487-1.50791.21826-.38645.65406-.59318 1.09116-.51627.9745.17117 2.6777.45715 3.5012.51848.2361.01723.472.01723.7076-.02632.7798-.14472 1.2679-.59043 1.458-1.36623.0925-.37777.1699-.76201.3578-1.11056.1365-.25387.3307-.44503.5891-.57141.0815-.03845.1716-.06602.2102.04424.2216.62943.7436 1.03311 1.1381 1.53271l.0403.04824c.2446.29852.2428.29742.0459.62874-.2706.45137-.4084.94532-.445 1.46619-.0213.3072-.0196.6138.0063.9181-1.0068-.2073-2.2339-.0867-3.1028.0551-.3864.0501-.75.1241-1.0939.2224l-.0097.0028h.0016c-1.4074.4043-2.4933 1.2203-3.5115 2.5291-.5243.6753-1.20542 2.1614-1.20542 2.1614-.03391.1418-.20384.3526-.33367.422Zm12.32809-4.8312c-.1481-.244-.2847-.4949-.4307-.7402-.0814-.1395-.1405-.2836-.1733-.4445-.0782-.383-.1763-.76074-.4135-1.08407-.5261-.72067-1.0739-1.42425-1.67-2.08745-.3146-.34965-.6046-.70399-.7711-1.1537-.1155-.3123-.2722-.32898-.5968-.25442-1.439.33201-1.7427 1.55394-1.8392 1.90318-.1189.4278-.3962.68621-.816.8159-.3371.10406-2.4533.12059-3.34-.05788-.1061-.02137-.1464-.07305-.1521-.18496-.0229-.46115-.2079-.67477-.6621-.78214-.2372-.05623-.479-.09702-.7115-.16593-.29229-.08669-.50247.01778-.67365.24408-.09702.12914-.16593.27275-.22106.42435-.20219.55473-.28653 1.13234-.35145 1.71532-.02701.23942-.01088.48752-.12927.71322-.26806.5122-.5036 1.044-.80157 1.5373-.35834.5908-.81604 1.0973-1.51493 1.3053-.61496.1819-1.15136.26-1.87437.4156-2.03976.4394-2.62095 1.4133-2.52668 2.3465.09702.9584.77869 1.9289 1.93115 2.2091.7627.185 1.53905.2419 2.27295.2665.14471.0046.28708.0086.4278.0115.68511-.0046 1.28918-.0459 1.89339-.093.91361-.0713 1.75599-.3256 2.51689-.8609.3009-.2124.6179-.3888.9481-.5362.4784-.2137.9837-.366 1.5075-.4744 1.8214-.379 3.6189-.8534 5.3922-1.419.6563-.2097 1.3173-.4186 1.9261-.7477.9332-.5042 1.5993-1.5924.8532-2.8214Z"/>
</svg>
