<svg xmlns="http://www.w3.org/2000/svg" fill="none" viewBox="0 0 24 24">
  <path fill="#000" d="M12.2369 6.6548c-.4928 0-.8923-.3995-.8923-.89229v-1.5395c0-.49264.3995-.8923.8923-.8923.4926 0 .8915.39966.8915.8923v1.5395c0 .49279-.3989.89229-.8915.89229Zm-4.74568.06449c-.49586.33195-.95281.71736-1.36456 1.14765L5.22732 6.7991c-.20803-.24831-.17739-.62484.07536-.83745l.45634-.38097c.24769-.20818.62927-.17754.83745.07521l.89475 1.0634ZM19.245 6.7991l-.8943 1.06784c-.4123-.43029-.8731-.8157-1.3645-1.14765l.8903-1.0634c.2126-.25275.5891-.28339.8374-.07521l.4558.38097c.2527.21261.284.58914.0753.83745Z"/>
  <path fill="#000" d="M14.0215 3.78459c0 .98605-.7992 1.0173-1.7846 1.0173-.9862 0-1.7854-.03125-1.7854-1.0173C10.4515 2.79901 11.2507 2 12.2369 2c.9854 0 1.7846.79901 1.7846 1.78459Zm-.5745 9.97931c0 .6682-.542 1.2102-1.2101 1.2102-.669 0-1.211-.542-1.211-1.2102 0-.6689.542-1.2109 1.211-1.2109.6681 0 1.2101.542 1.2101 1.2109Z"/>
  <path fill="#000" d="M11.0259 13.7639c0-1.6858 1.0717-4.56104 1.211-4.56104.1384 0 1.2101 2.87524 1.2101 4.56104 0 1.5643-2.4211 1.6071-2.4211 0Z"/>
  <path fill="#000" d="M12.2361 19.5829c-3.20845 0-5.81901-2.6105-5.81901-5.819 0-3.2092 2.61056-5.81975 5.81901-5.81975 3.2092 0 5.8198 2.61055 5.8198 5.81975 0 3.2085-2.6106 5.819-5.8198 5.819Zm0-12.27707c-3.56016 0-6.45733 2.89717-6.45733 6.45727 0 3.561 2.89717 6.4581 6.45733 6.4581 3.5609 0 6.4581-2.8971 6.4581-6.4581 0-3.5601-2.8972-6.45727-6.4581-6.45727Z"/>
  <path fill="#000" d="M12.2361 20.6508c-3.79698 0-6.88624-3.0899-6.88624-6.8877 0-3.79692 3.08926-6.8868 6.88624-6.8868 3.7977 0 6.8876 3.08988 6.8876 6.8868 0 3.7978-3.0899 6.8877-6.8876 6.8877Zm0-15.12374C7.69495 5.52706 4 9.22201 4 13.7639 4 18.3051 7.69495 22 12.2361 22c4.5419 0 8.2368-3.6949 8.2368-8.2361 0-4.54189-3.6949-8.23684-8.2368-8.23684Z"/>
</svg>
